<?xml version="1.0" standalone="no"?>
<!DOCTYPE svg PUBLIC "-//W3C//DTD SVG 20010904//EN"
 "http://www.w3.org/TR/2001/REC-SVG-20010904/DTD/svg10.dtd">
<svg version="1.0" xmlns="http://www.w3.org/2000/svg"
 width="1024.000000pt" height="937.000000pt" viewBox="0 0 1024.000000 937.000000"
 preserveAspectRatio="xMidYMid meet">
<metadata>
Created by potrace 1.16, written by Peter Selinger 2001-2019
</metadata>
<g transform="translate(0.000000,937.000000) scale(0.100000,-0.100000)"
fill="#000000" stroke="none">
<path d="M7109 9007 c-70 -42 -89 -58 -174 -142 -65 -65 -464 -478 -551 -570
-21 -22 -91 -95 -156 -161 -95 -99 -118 -127 -118 -151 0 -24 -12 -37 -70 -81
-38 -28 -71 -52 -73 -52 -3 0 -28 32 -58 72 -114 153 -275 280 -474 374 -187
87 -306 116 -490 116 -368 1 -693 -142 -926 -409 -136 -155 -212 -290 -263
-466 -35 -122 -53 -369 -36 -504 55 -439 353 -814 777 -978 186 -71 436 -98
623 -66 500 84 891 452 1001 940 34 150 35 345 4 516 -5 28 1 34 104 113 89
67 116 82 145 82 27 0 96 34 293 147 325 184 373 211 638 360 148 83 250 150
247 163 -1 6 2 9 7 6 12 -8 62 44 54 58 -3 6 -2 8 2 3 9 -8 45 20 45 35 0 6 9
17 19 26 31 27 82 129 65 129 -8 0 -13 -6 -10 -13 3 -7 -7 -24 -20 -38 -14
-14 -23 -30 -19 -36 3 -5 1 -10 -4 -10 -6 0 -11 5 -11 10 0 18 -22 10 -47 -16
-13 -14 -26 -24 -29 -22 -2 3 8 17 22 31 22 22 24 29 14 42 -7 8 -24 15 -39
15 -27 0 -51 16 -51 33 0 4 5 5 10 2 6 -3 10 0 10 8 0 15 -31 47 -46 47 -12 0
-106 97 -119 124 -6 11 -22 26 -35 33 -14 7 -32 25 -41 40 -10 19 -25 29 -45
31 -16 2 -35 8 -41 14 -15 12 -17 32 -3 23 6 -3 10 0 10 8 0 16 -31 47 -47 47
-6 0 -16 7 -23 15 -7 8 -16 12 -21 9 -5 -3 -9 0 -9 6 0 8 10 10 28 6 20 -5 23
-4 12 4 -12 8 -13 10 -1 10 8 0 12 2 9 5 -3 3 -18 0 -34 -6 -37 -14 -104 -21
-84 -9 8 5 24 7 35 4 15 -4 16 -3 6 4 -11 8 -10 12 7 21 11 6 27 9 34 8 7 -2
10 -2 5 0 -4 3 -5 9 -1 14 8 14 2 11 -57 -24z m-1947 -905 c264 -71 479 -247
601 -493 63 -126 88 -226 94 -374 10 -250 -74 -482 -241 -662 -86 -93 -163
-152 -263 -204 -372 -191 -826 -112 -1108 193 -229 247 -308 595 -208 913 101
319 360 557 693 637 103 24 322 19 432 -10z"/>
<path d="M6574 8562 c-117 -102 -155 -134 -200 -167 -70 -51 -124 -98 -120
-103 3 -3 12 1 21 8 9 8 15 8 15 2 0 -6 -9 -13 -19 -17 -11 -3 -25 -13 -33
-22 -9 -12 -9 -15 0 -9 8 5 12 -1 12 -18 0 -14 4 -26 9 -26 4 0 6 11 4 24 -4
18 1 27 19 36 19 10 21 10 11 -1 -7 -7 -13 -20 -13 -28 0 -11 6 -9 19 9 11 13
17 28 15 32 -3 4 2 5 12 1 14 -5 15 -3 4 18 -12 22 -12 23 3 11 13 -11 33 5
149 124 73 75 146 149 161 163 24 22 54 63 45 60 -2 0 -53 -44 -114 -97z"/>
<path d="M9983 3447 l-83 -102 0 -774 c0 -428 4 -771 9 -765 15 17 148 209
160 231 8 16 11 217 10 768 0 410 -4 745 -7 745 -4 -1 -44 -47 -89 -103z"/>
<path d="M4651 3369 l-83 -69 1 -207 c3 -331 -26 -667 -69 -813 -11 -36 -33
-87 -50 -114 -35 -55 -92 -126 -101 -126 -3 0 -9 71 -12 158 -7 186 -23 260
-75 345 -126 207 -363 465 -477 518 -57 26 -86 24 -122 -11 -89 -87 -53 -246
93 -411 31 -35 60 -65 64 -67 3 -1 21 16 39 38 17 22 38 40 45 40 37 0 274
-302 307 -390 39 -103 38 -312 -2 -349 -26 -24 -178 -109 -274 -153 -109 -49
-279 -104 -393 -128 -52 -10 -96 -21 -99 -24 -13 -12 110 -21 282 -19 149 1
211 6 287 22 164 34 274 90 335 168 72 92 208 347 247 463 25 75 29 77 40 19
9 -53 83 -295 105 -344 26 -59 77 -103 140 -121 82 -25 406 -15 515 15 129 36
194 61 268 104 l70 40 41 -41 c59 -56 117 -90 190 -110 57 -16 142 -17 987
-17 870 0 929 1 985 18 33 11 67 25 76 33 14 12 23 12 71 -5 85 -29 231 -51
343 -51 108 0 215 21 302 60 l46 20 76 -29 c99 -38 231 -63 350 -64 88 -2 101
0 162 29 l66 32 7 68 c10 102 8 332 -3 390 -5 28 -15 71 -22 97 l-11 47 -32
-27 c-17 -14 -57 -49 -88 -78 l-57 -51 19 -40 c25 -50 37 -153 21 -182 -24
-44 -66 -56 -201 -56 -152 0 -175 8 -166 62 8 54 24 197 31 277 l6 70 -84 -83
-84 -84 1 -99 c1 -141 15 -133 -248 -137 -163 -3 -232 0 -296 12 -46 8 -88 20
-93 25 -6 6 -2 52 12 124 22 119 28 232 12 241 -5 4 -43 -31 -85 -76 l-75 -83
6 -66 c3 -40 1 -80 -6 -101 -20 -60 -28 -61 -563 -65 l-477 -4 -5 23 c-3 13
-7 48 -10 79 -13 124 -111 384 -164 432 -19 17 -20 15 -69 -100 l-51 -117 29
-36 c42 -52 99 -190 99 -240 l0 -41 -387 3 c-342 3 -394 6 -435 22 -75 28 -75
30 -16 150 82 169 76 245 -25 349 -134 135 -349 156 -462 43 -42 -42 -137
-218 -149 -277 l-6 -27 38 14 c56 20 91 17 157 -15 94 -44 141 -110 111 -156
-30 -46 -226 -90 -461 -101 -175 -9 -283 16 -327 76 -38 52 -66 411 -76 973
l-7 375 -84 -69z"/>
<path d="M6621 3199 c-28 -44 -51 -83 -51 -87 1 -7 203 -136 232 -147 17 -7
28 8 92 116 l27 47 -53 32 c-29 18 -85 52 -125 76 l-72 42 -50 -79z"/>
<path d="M6264 3184 c-39 -72 -44 -88 -33 -98 18 -17 218 -136 227 -136 4 0
17 17 29 38 12 20 34 56 48 79 l25 42 -72 47 c-40 26 -96 62 -125 81 l-52 33
-47 -86z"/>
<path d="M3035 2484 c-74 -38 -123 -108 -201 -291 -30 -70 -63 -136 -73 -146
-28 -28 -217 -38 -667 -35 l-399 3 -54 30 c-39 21 -86 66 -163 152 -133 149
-160 168 -231 159 -96 -11 -252 -107 -326 -199 -69 -87 -141 -259 -141 -337 0
-60 8 -66 194 -156 74 -35 138 -68 141 -74 20 -32 -61 -63 -285 -106 -196 -38
-372 -40 -472 -6 -224 78 -262 260 -134 645 23 70 39 127 35 127 -14 0 -49
-58 -99 -162 -101 -215 -145 -405 -122 -530 33 -177 171 -309 382 -365 103
-27 298 -22 422 10 128 34 263 94 374 166 130 85 140 98 154 207 9 72 9 101
-1 133 -11 38 -16 42 -83 67 -221 84 -336 136 -336 155 0 43 61 102 176 169
55 32 78 40 119 40 l50 0 85 -92 c147 -161 209 -219 258 -241 46 -21 58 -22
500 -25 512 -4 541 -1 603 55 22 20 42 46 45 59 8 30 12 30 60 -5 124 -90 432
-154 519 -109 119 63 128 230 25 446 -68 143 -144 235 -215 262 -39 15 -106
12 -140 -6z m147 -219 c88 -58 160 -226 114 -264 -43 -36 -187 -10 -311 58
-92 49 -95 67 -24 145 90 99 142 113 221 61z"/>
<path d="M1142 950 l3 -60 4060 0 4060 0 3 60 3 60 -4066 0 -4066 0 3 -60z"/>
<path d="M2612 337 c-38 -22 -56 -57 -57 -113 0 -88 60 -140 136 -118 50 14
74 55 74 126 0 55 -3 62 -33 89 -35 32 -80 38 -120 16z m94 -31 c15 -12 19
-27 19 -76 0 -53 -3 -65 -24 -81 -29 -24 -53 -24 -82 0 -20 16 -24 29 -24 74
0 40 5 61 19 76 22 24 64 27 92 7z"/>
<path d="M3065 338 c-11 -6 -23 -16 -27 -22 -5 -7 -8 -4 -8 7 0 10 -8 17 -20
17 -19 0 -20 -7 -20 -115 0 -108 1 -115 20 -115 18 0 20 7 20 80 0 73 3 83 25
105 28 29 43 31 71 11 16 -12 20 -29 22 -105 3 -70 7 -91 18 -91 11 0 14 21
14 98 0 103 -3 113 -37 131 -27 14 -52 14 -78 -1z"/>
<path d="M4030 333 c-17 -12 -25 -13 -28 -5 -2 7 -12 12 -23 12 -18 0 -19 -8
-19 -115 0 -108 1 -115 20 -115 18 0 20 7 20 80 0 73 3 83 25 105 29 30 49 31
75 5 17 -17 20 -33 20 -105 0 -69 3 -85 15 -85 12 0 15 18 15 100 0 89 -2 101
-22 120 -27 24 -65 26 -98 3z"/>
<path d="M4441 337 c-39 -20 -62 -58 -63 -108 -1 -87 51 -139 126 -125 47 9
101 76 61 76 -8 0 -19 -9 -25 -19 -12 -24 -62 -36 -88 -22 -20 11 -45 65 -35
75 4 3 44 6 91 6 l85 0 -7 32 c-16 80 -81 118 -145 85z"/>
<path d="M5139 335 c-31 -17 -44 -57 -29 -85 6 -11 29 -24 53 -30 67 -17 87
-28 87 -49 0 -44 -68 -54 -106 -16 -28 28 -44 32 -44 11 0 -46 82 -80 139 -57
27 12 51 47 51 75 0 22 -34 45 -89 62 -29 8 -55 22 -58 30 -15 40 66 62 89 24
13 -20 48 -28 48 -11 0 5 -8 19 -18 31 -22 27 -87 36 -123 15z"/>
<path d="M5565 341 c-40 -17 -59 -50 -63 -111 -4 -57 -3 -61 31 -95 51 -51
126 -44 161 15 16 27 16 30 1 30 -9 0 -25 -10 -35 -22 -12 -16 -28 -22 -55
-22 -41 0 -65 22 -65 61 0 22 3 23 86 23 l87 0 -6 38 c-11 68 -80 108 -142 83z"/>
<path d="M6985 341 c-40 -17 -59 -50 -63 -111 -4 -57 -3 -61 31 -95 44 -44 91
-47 136 -9 17 14 31 32 31 40 0 18 -26 18 -37 0 -10 -16 -46 -36 -67 -36 -24
0 -56 37 -56 65 0 14 3 24 8 24 4 -1 42 -1 86 0 l79 1 -6 37 c-4 20 -17 47
-30 60 -25 26 -81 38 -112 24z"/>
<path d="M7378 321 c-27 -24 -32 -36 -36 -89 -4 -60 -3 -63 31 -97 40 -40 73
-45 118 -18 15 9 33 30 38 45 9 24 7 28 -9 28 -10 0 -22 -9 -25 -21 -9 -26
-50 -42 -75 -29 -47 25 -56 115 -15 155 31 32 50 31 81 0 31 -31 54 -33 47 -5
-16 61 -102 78 -155 31z"/>
<path d="M7794 331 c-40 -24 -58 -69 -51 -128 12 -107 138 -141 191 -52 15 25
15 29 2 29 -8 0 -26 -11 -40 -25 -14 -14 -34 -25 -46 -25 -27 0 -70 43 -70 70
0 20 5 21 68 20 104 -2 102 -3 102 26 0 38 -30 82 -63 94 -42 14 -58 13 -93
-9z"/>
<path d="M6275 228 c56 -151 69 -154 117 -26 52 137 53 138 31 138 -15 0 -25
-19 -48 -90 -16 -50 -32 -90 -35 -90 -3 0 -19 40 -35 90 -25 78 -32 90 -51 90
-21 0 -21 -3 21 -112z"/>
</g>
</svg>
