<svg xmlns="http://www.w3.org/2000/svg" xmlns:xlink="http://www.w3.org/1999/xlink" width="174" height="185.741" viewBox="0 0 174 185.741">
  <defs>
    <linearGradient id="linear-gradient" x1="0.961" y1="-0.02" x2="0.234" y2="0.826" gradientUnits="objectBoundingBox">
      <stop offset="0" stop-color="#6d9f43"/>
      <stop offset="0.863" stop-color="#a6ce39"/>
    </linearGradient>
    <linearGradient id="linear-gradient-2" y1="0.5" x2="1.264" y2="0.5" gradientUnits="objectBoundingBox">
      <stop offset="0" stop-color="#a6ce39"/>
      <stop offset="0.314" stop-color="#6d9f43"/>
      <stop offset="0.679" stop-color="#a6ce39"/>
    </linearGradient>
    <radialGradient id="radial-gradient" cx="-0.027" cy="0.151" r="0.41" gradientTransform="translate(-0.011) scale(1.022 1)" gradientUnits="objectBoundingBox">
      <stop offset="0" stop-color="#fff"/>
      <stop offset="1"/>
    </radialGradient>
    <linearGradient id="linear-gradient-3" x1="-0.052" y1="1.363" x2="0.801" y2="-0.154" gradientTransform="matrix(1, 0, 0, 1, 0, 0)" xlink:href="#radial-gradient"/>
    <linearGradient id="linear-gradient-4" x1="0.042" y1="0.945" x2="0.724" y2="-0.231" gradientUnits="objectBoundingBox">
      <stop offset="0" stop-color="#a6ce39"/>
      <stop offset="0.781" stop-color="#6d9f43"/>
    </linearGradient>
    <linearGradient id="linear-gradient-5" x1="0.944" y1="0.018" x2="0.139" y2="1.015" gradientUnits="objectBoundingBox">
      <stop offset="0" stop-color="#29a7df"/>
      <stop offset="1" stop-color="#2a3d8e"/>
    </linearGradient>
    <linearGradient id="linear-gradient-6" x1="-1.455" y1="-1.079" x2="-1.83" y2="-0.686" gradientUnits="objectBoundingBox">
      <stop offset="0" stop-color="#2a3d8e"/>
      <stop offset="1" stop-color="#29a7df"/>
    </linearGradient>
    <linearGradient id="linear-gradient-7" x1="-9.258" y1="3.142" x2="-10.355" y2="4.46" xlink:href="#linear-gradient-5"/>
  </defs>
  <g id="Group_54387" data-name="Group 54387" transform="translate(14277.029 812.741)">
    <g id="Group_23430" data-name="Group 23430" transform="translate(-14276.029 -812.741)">
      <g id="Group_23423" data-name="Group 23423" transform="translate(0 0)">
        <path id="Path_1" data-name="Path 1" d="M1802.613,477.594c2.028,34.082-38.686,67.559-38.686,67.559s-17.293-14.931-27.538-33.154c11.851,5.484,30.311,5.04,40.5-7.867,6.6-8.362,8.894-16.672,8.385-23.917-2.859-14.32-4.385-6.341-3.062-7.959,3.365-4.115,11.04-6.9,17.7-10.938C1800.691,463.749,1801.879,465.263,1802.613,477.594Z" transform="translate(-1673.126 -434.913)" fill="url(#linear-gradient)"/>
        <path id="Path_2" data-name="Path 2" d="M1702.7,259.261c-2.406,8.022-8.725,12.154-11.913,18.457-4.349-6.179-11.11-9.886-17.817-9.474-13.189,0-25.935,12.606-22.261,28.284,3.786,16.182,24.874,18.091,31.22,14.1a27.476,27.476,0,0,1-16.8,6.505c-15.139.471-27.835-8.056-29.62-26-.083-.834-.083-2.419-.083-2.726,0-23.57,17.319-42.681,38.686-42.681A39.1,39.1,0,0,1,1702.7,259.261Z" transform="translate(-1583.373 -245.72)" fill="url(#linear-gradient-2)"/>
        <path id="Path_3" data-name="Path 3" d="M1678.19,329.24c-15.189,0-25.159-9.074-26.672-24.273-.045-.455-.072-1.395-.072-2.513,0-22.453,16.557-40.72,36.908-40.72a34.815,34.815,0,0,1,22.966,8.843,139.7,139.7,0,0,1-6.642,17.757c-4.432-5.072-10.415-8.029-16.451-8.029q-.533,0-1.066.031a25.235,25.235,0,0,0-20.189,10.8,24.514,24.514,0,0,0-3.744,19.937c2.565,10.963,12.538,16.387,22.112,17.232a24.856,24.856,0,0,1-6.018.918Q1678.753,329.24,1678.19,329.24Z" transform="translate(-1597.612 -259.773)" fill="url(#radial-gradient)" style="mix-blend-mode: screen;isolation: isolate"/>
        <path id="Path_4" data-name="Path 4" d="M2083.174,369.665h0a24.288,24.288,0,0,1,4.674,4.989c3.188-6.3,10.284-9.29,12.69-17.312C2100.539,357.343,2089.589,368.538,2083.174,369.665Z" transform="translate(-1981.42 -343.672)" opacity="0.5" fill="url(#linear-gradient-3)" style="mix-blend-mode: multiply;isolation: isolate"/>
        <path id="Path_5" data-name="Path 5" d="M1763.4,855.853s20.473-17.682,31.632-40.47c-12.079,24.407-45.561,21.657-59.17,7.315C1746.109,840.921,1763.4,855.853,1763.4,855.853Z" transform="translate(-1672.66 -745.612)" fill="url(#linear-gradient-4)"/>
        <text id="استعلامى" transform="translate(86 144.493)" font-size="45" font-family="GeezaPro, Geeza Pro" letter-spacing="0.05em"><tspan x="-86.428" y="0">استعلامى</tspan></text>
        <line id="Line_1" data-name="Line 1" x2="144.806" transform="translate(20.119 165.264)" fill="none" stroke="#707070" stroke-miterlimit="10" stroke-width="2"/>
        <text id="o_n_l_i_n_e_s_e_r_v_i_e_c_e" data-name="o n l i n e   s e r v i e c e" transform="translate(89.029 182.741)" fill="#414143" font-size="11" font-family="Helvetica" letter-spacing="0.05em"><tspan x="-65.78" y="0" xml:space="preserve">o n l i n e   s e r v i e c e</tspan></text>
        <path id="Path_6" data-name="Path 6" d="M2131.135,302.754l-18.834,11.7-1.027-.15-4.507,3.862-4.442-6.481,4.507-3.862.137-1.147,15.009-17.288a11.849,11.849,0,0,1,13.77-3.4,3.312,3.312,0,0,1,1.9,2.776A14.807,14.807,0,0,1,2131.135,302.754Z" transform="translate(-1998.444 -280.227)" stroke="#fff" stroke-miterlimit="10" stroke-width="3" fill="url(#linear-gradient-5)"/>
        <path id="Path_7" data-name="Path 7" d="M1801.129,412.967m-2.255-5.222a25.971,25.971,0,0,0-1.673-2.583h0a24,24,0,0,0-13.153-8.409c-.133-.026-.268-.05-.405-.074s-.273-.046-.408-.067c0,0-.413-.063-.824-.109a22.58,22.58,0,0,0-11,1.966,21.91,21.91,0,0,0-6,4.355l-3.042,3.824a25,25,0,0,0-2.478,5.056,25.812,25.812,0,0,0-.8,2.7c-.388.876-.684,7.8-.684,7.8.686,11.635,8.924,21.341,19.782,22.5,12.063,1.287,22.787-8.46,23.954-21.77a27.447,27.447,0,0,0-.488-7.925m-2.811-7.352-31.226,24.395c-5.763-7.72-4.762-19.134,2.234-25.493s17.34-5.255,23.1,2.465,4.762,19.134-2.234,25.493S1773.379,439.771,1767.617,432.05Z" transform="translate(-1692.699 -377.946)" stroke="#fff" stroke-miterlimit="10" stroke-width="3" fill="url(#linear-gradient-6)"/>
        <path id="Path_8" data-name="Path 8" d="M1862.283,552.967c7.863.725,14.77-5.72,15.427-14.4a16.862,16.862,0,0,0-2.915-10.927,16.968,16.968,0,0,1,2.208,9.813c-.657,8.676-7.564,15.121-15.427,14.4a13.957,13.957,0,0,1-10.131-6.1A14.132,14.132,0,0,0,1862.283,552.967Z" transform="translate(-1775.411 -493.115)" fill="url(#linear-gradient-7)"/>
      </g>
    </g>
  </g>
</svg>
